<?xml version="1.0" standalone="no"?>
<!DOCTYPE svg PUBLIC "-//W3C//DTD SVG 20010904//EN"
 "http://www.w3.org/TR/2001/REC-SVG-20010904/DTD/svg10.dtd">
<svg version="1.0" xmlns="http://www.w3.org/2000/svg"
 width="24" height="24" viewBox="0 0 550.000000 546.000000"
 preserveAspectRatio="xMidYMid meet" >

<g transform="translate(0.000000,546.000000) scale(0.100000,-0.100000)"
fill="#000000" stroke="none">
<path d="M2575 5244 c-16 -2 -70 -9 -120 -15 -267 -33 -539 -116 -800 -244
-255 -124 -468 -278 -680 -490 -392 -391 -628 -856 -722 -1420 -20 -126 -28
-485 -14 -627 56 -534 260 -1005 614 -1415 851 -987 2357 -1171 3431 -418 492
344 841 840 1002 1424 46 167 52 235 25 279 -57 90 -191 98 -249 15 -10 -16
-33 -89 -51 -163 -99 -410 -296 -759 -600 -1060 -282 -280 -569 -453 -946
-569 -185 -56 -471 -101 -655 -101 -96 0 -280 17 -395 36 -858 143 -1567 775
-1803 1609 -111 388 -111 842 0 1230 221 782 851 1384 1648 1578 189 47 318
61 540 61 276 0 479 -31 727 -113 281 -92 608 -283 804 -469 l64 -61 -70 -68
c-39 -38 -141 -135 -228 -216 -120 -114 -157 -155 -157 -174 0 -31 15 -59 36
-67 9 -3 170 -20 357 -36 188 -16 447 -39 576 -51 232 -20 235 -20 260 -1 25
19 26 23 26 128 0 187 -27 1027 -34 1053 -4 13 -19 34 -35 45 -27 21 -27 21
-61 1 -19 -11 -128 -108 -242 -216 l-208 -195 -104 93 c-358 321 -825 539
-1326 619 -95 15 -536 28 -610 18z"/>
<path d="M2209 3812 c-159 -42 -272 -167 -298 -333 -15 -87 -15 -1461 0 -1549
21 -136 106 -253 225 -311 87 -43 210 -51 300 -21 66 23 1329 740 1396 794 56
44 112 134 133 212 41 151 -16 314 -146 417 -34 28 -1205 702 -1316 757 -57
29 -150 53 -202 51 -14 0 -55 -8 -92 -17z"/>
</g>
</svg>
